<svg width="501" height="501" viewBox="0 0 501 501" fill="none" xmlns="http://www.w3.org/2000/svg">
<rect width="501" height="501" fill="#F7D200"/>
<path d="M296.168 82.3375C307.286 93.3981 311.063 107.89 307.498 125.814C303.933 143.724 294.797 160.07 280.09 174.854C271.699 183.289 261.995 190.593 250.98 196.765C239.95 202.937 230.044 207.731 221.262 211.149L162.05 175.271C165.249 161.569 170.085 148.345 176.558 135.599C183.03 122.854 192.09 110.62 203.736 98.8977C219.304 83.2489 235.859 73.8494 253.403 70.6994C270.947 67.5494 285.202 71.4287 296.168 82.3375ZM148.402 260.873C138.855 251.374 134.999 240.052 136.836 226.905C138.695 213.765 145.328 201.389 156.735 189.776L212.897 224.117C211.418 229.909 209.476 235.984 207.07 242.344C204.664 248.704 201.244 254.113 196.81 258.57C189.561 265.857 181.365 269.74 172.22 270.221C163.075 270.702 155.136 267.586 148.402 260.873ZM361.898 256.236C372.864 267.144 376.817 281.379 373.759 298.939C370.7 316.499 361.387 333.103 345.82 348.752C333.761 360.874 321.165 370.14 308.033 376.55C294.9 382.959 281.143 387.865 266.762 391.268L233.878 330.56C237.403 321.898 242.153 312.178 248.13 301.399C254.101 290.627 261.212 281.093 269.466 272.796C284.173 258.012 300.475 248.795 318.373 245.143C336.264 241.47 350.772 245.168 361.898 256.236ZM184.136 404.931C177.395 398.225 174.241 390.298 174.675 381.151C175.108 372.004 178.941 363.795 186.175 356.523C190.754 351.92 196.355 348.399 202.978 345.959C209.601 343.519 215.876 341.479 221.805 339.839L253.018 398.278C242.035 408.62 230.123 414.624 217.283 416.289C204.457 417.94 193.408 414.154 184.136 404.931Z" fill="#F8FFF3"/>
</svg>
