<svg width="100" height="100" viewBox="0 0 100 100" fill="none" xmlns="http://www.w3.org/2000/svg">
<g clip-path="url(#clip0_72_54)">
<path fill-rule="evenodd" clip-rule="evenodd" d="M24.75 68.5V66.7875C24.75 65.075 25.995 63.08 27.535 62.3275L41.685 55.4225C43.7375 54.4225 44.215 52.2025 42.735 50.4475L41.83 49.375C39.99 47.195 38.5 43.125 38.5 40.275V36C38.5 33.3478 39.5536 30.8043 41.4289 28.9289C43.3043 27.0536 45.8478 26 48.5 26C51.1522 26 53.6957 27.0536 55.5711 28.9289C57.4464 30.8043 58.5 33.3478 58.5 36V40.275C58.5 43.125 57 47.2075 55.17 49.38L54.2675 50.45C52.7925 52.1975 53.2525 54.42 55.315 55.425L69.465 62.33C71.0025 63.08 72.25 65.0625 72.25 66.7875V68.5C72.25 69.163 71.9866 69.7989 71.5178 70.2678C71.0489 70.7366 70.413 71 69.75 71H27.25C26.587 71 25.9511 70.7366 25.4822 70.2678C25.0134 69.7989 24.75 69.163 24.75 68.5Z" fill="white"/>
</g>
<defs>
<clipPath id="clip0_72_54">
<rect width="100" height="100" fill="white"/>
</clipPath>
</defs>
</svg>
