<svg width="100" height="100" viewBox="0 0 100 100" fill="none" xmlns="http://www.w3.org/2000/svg">
<g clip-path="url(#clip0_72_25)">
<path d="M21.3594 46.225V71.9313H24.2094V49.075H61.3531V71.9313H24.2094V74.7813H72.7906V71.9313H64.2219V49.075H72.7906V71.9313H75.6406V34.7875H72.7906V43.3563H69.9219V46.225H32.7781V43.3563H29.9281V46.225H21.3594ZM69.9219 31.9375H72.7906V34.7875H69.9219V31.9375Z" fill="white"/>
<path d="M67.0719 51.925H69.9219V69.0813H67.0719V51.925ZM67.0719 40.5063H69.9219V43.3562H67.0719V40.5063ZM67.0719 29.0688H69.9219V31.9375H67.0719V29.0688ZM64.2219 37.6375H67.0719V40.5063H64.2219V37.6375ZM64.2219 31.9375H67.0719V34.7875H64.2219V31.9375ZM44.2156 57.6438H41.3469V69.0813H55.6344V51.925H44.2156V57.6438ZM52.7844 60.4938V66.2125H44.2156V60.4938H52.7844ZM38.4969 51.925H41.3469V54.7938H38.4969V51.925ZM35.6469 51.925H27.0781V69.0813H38.4969V57.6438H35.6469V51.925ZM35.6469 66.2125H29.9375V60.4938H35.6562L35.6469 66.2125ZM27.0781 26.2188H67.0719V29.0688H27.0781V26.2188ZM27.0781 40.5063H29.9281V43.3562H27.0781V40.5063ZM64.2219 37.6375V34.7875H24.2094V31.9375H21.3594V37.6375H24.2094V40.5063H27.0781V37.6375H64.2219ZM24.2094 29.0688H27.0781V31.9375H24.2094V29.0688Z" fill="white"/>
</g>
<defs>
<clipPath id="clip0_72_25">
<rect width="100" height="100" fill="white"/>
</clipPath>
</defs>
</svg>
