<svg width="100" height="100" viewBox="0 0 100 100" fill="none" xmlns="http://www.w3.org/2000/svg">
<g clip-path="url(#clip0_72_2)">
<g clip-path="url(#clip1_72_2)">
<path d="M46 23.5C40.0326 23.5 34.3097 25.8705 30.0901 30.0901C25.8705 34.3097 23.5 40.0326 23.5 46C23.5 51.9674 25.8705 57.6903 30.0901 61.9099C34.3097 66.1295 40.0326 68.5 46 68.5C51.9674 68.5 57.6903 66.1295 61.9099 61.9099C66.1295 57.6903 68.5 51.9674 68.5 46C68.5 40.0326 66.1295 34.3097 61.9099 30.0901C57.6903 25.8705 51.9674 23.5 46 23.5ZM26.275 47.7H32.55C32.65 49.975 32.9675 52.235 33.5 54.45H28.1C27.095 52.3265 26.477 50.0406 26.275 47.7ZM47.7 34.2V26.475C50.1092 27.3906 52.0889 29.1741 53.25 31.475C53.7633 32.3433 54.2133 33.2433 54.6 34.175L47.7 34.2ZM55.75 37.575C56.33 39.7825 56.675 42.045 56.775 44.325H47.7V37.575H55.75ZM44.3 26.475V34.2H37.4C37.7854 33.2691 38.2366 32.3669 38.75 31.5C39.9062 29.1896 41.8865 27.3967 44.3 26.475ZM44.3 37.575V44.325H35.25C35.35 42.045 35.695 39.7825 36.275 37.575H44.3ZM32.55 44.3H26.275C26.477 41.9594 27.095 39.6735 28.1 37.55H33.5C32.9645 39.7637 32.6463 42.0244 32.55 44.3ZM35.25 47.7H44.3V54.45H36.275C35.6973 52.2422 35.3537 49.9797 35.25 47.7ZM44.325 57.7V65.425C41.9158 64.5094 39.9361 62.7259 38.775 60.425C38.2616 59.5581 37.8104 58.6559 37.425 57.725L44.325 57.7ZM47.7 65.425V57.825H54.6C54.2146 58.7559 53.7634 59.6581 53.25 60.525C52.0889 62.8259 50.1092 64.6094 47.7 65.525V65.425ZM47.7 54.325V47.575H56.75C56.6463 49.8547 56.3027 52.1172 55.725 54.325H47.7ZM59.475 47.575H65.75C65.548 49.9156 64.93 52.2015 63.925 54.325H58.5C59.025 52.15 59.3425 49.9325 59.45 47.7L59.475 47.575ZM59.475 44.2C59.3625 41.9656 59.036 39.7471 58.5 37.575H63.9C64.9075 39.7 65.525 41.985 65.725 44.325L59.475 44.2ZM61.975 34.2H57.5C56.6911 31.9254 55.5174 29.7976 54.025 27.9C57.136 29.2964 59.8382 31.4651 61.875 34.2H61.975ZM37.975 27.9C36.4826 29.7976 35.3089 31.9254 34.5 34.2H30.125C32.1618 31.4651 34.864 29.2964 37.975 27.9ZM30.1 57.9H34.5C35.3089 60.1746 36.4826 62.3024 37.975 64.2C34.8554 62.7825 32.1524 60.5874 30.125 57.825L30.1 57.9ZM54 64.2C55.4924 62.3024 56.6661 60.1746 57.475 57.9H61.875C59.8257 60.5982 57.1246 62.7316 54.025 64.1L54 64.2Z" fill="white"/>
</g>
</g>
<defs>
<clipPath id="clip0_72_2">
<rect width="100" height="100" fill="white"/>
</clipPath>
<clipPath id="clip1_72_2">
<rect width="50" height="50" fill="white" transform="translate(23.5 23.5)"/>
</clipPath>
</defs>
</svg>
