<svg width="100" height="100" viewBox="0 0 100 100" fill="none" xmlns="http://www.w3.org/2000/svg">
<g clip-path="url(#clip0_47_128)">
<rect width="100" height="100" fill="white"/>
<path d="M21.3594 44.225V69.9313H24.2094V47.075H61.3531V69.9313H24.2094V72.7813H72.7906V69.9313H64.2219V47.075H72.7906V69.9313H75.6406V32.7875H72.7906V41.3563H69.9219V44.225H32.7781V41.3563H29.9281V44.225H21.3594ZM69.9219 29.9375H72.7906V32.7875H69.9219V29.9375Z" fill="#FFA629"/>
<path d="M67.0719 49.925H69.9219V67.0813H67.0719V49.925ZM67.0719 38.5063H69.9219V41.3562H67.0719V38.5063ZM67.0719 27.0688H69.9219V29.9375H67.0719V27.0688ZM64.2219 35.6375H67.0719V38.5063H64.2219V35.6375ZM64.2219 29.9375H67.0719V32.7875H64.2219V29.9375ZM44.2156 55.6438H41.3469V67.0813H55.6344V49.925H44.2156V55.6438ZM52.7844 58.4938V64.2125H44.2156V58.4938H52.7844ZM38.4969 49.925H41.3469V52.7938H38.4969V49.925ZM35.6469 49.925H27.0781V67.0813H38.4969V55.6438H35.6469V49.925ZM35.6469 64.2125H29.9375V58.4938H35.6562L35.6469 64.2125ZM27.0781 24.2188H67.0719V27.0688H27.0781V24.2188ZM27.0781 38.5063H29.9281V41.3562H27.0781V38.5063ZM64.2219 35.6375V32.7875H24.2094V29.9375H21.3594V35.6375H24.2094V38.5063H27.0781V35.6375H64.2219ZM24.2094 27.0688H27.0781V29.9375H24.2094V27.0688Z" fill="#FFA629"/>
</g>
<defs>
<clipPath id="clip0_47_128">
<rect width="100" height="100" fill="white"/>
</clipPath>
</defs>
</svg>
