<svg width="100" height="100" viewBox="0 0 100 100" fill="none" xmlns="http://www.w3.org/2000/svg">
<g clip-path="url(#clip0_45_127)">
<rect width="100" height="100" fill="white"/>
<path d="M-21 39C-21 5.86292 5.86292 -21 39 -21H58C91.1371 -21 118 5.86292 118 39V58C118 91.1371 91.1371 118 58 118H39C5.86292 118 -21 91.1371 -21 58V39Z" fill="url(#paint0_linear_45_127)"/>
<path d="M34.5 38.5L40.5 32.5L34.5 26.5" stroke="white" stroke-width="2" stroke-linecap="round" stroke-linejoin="round"/>
<path d="M26.5 26.5L20.5 32.5L26.5 38.5" stroke="white" stroke-width="2" stroke-linecap="round" stroke-linejoin="round"/>
<path d="M66.5 42.5C63.8478 42.5 61.3043 41.4464 59.4289 39.5711C57.5536 37.6957 56.5 35.1522 56.5 32.5C56.5 29.8478 57.5536 27.3043 59.4289 25.4289C61.3043 23.5536 63.8478 22.5 66.5 22.5C69.1522 22.5 71.6957 23.4482 73.5711 25.136C75.4464 26.8239 76.5 29.1131 76.5 31.5C76.5 32.8261 75.9732 34.0979 75.0355 35.0355C74.0979 35.9732 72.8261 36.5 71.5 36.5H69.25C68.925 36.5 68.6064 36.5905 68.33 36.7614C68.0535 36.9322 67.8301 37.1767 67.6848 37.4674C67.5394 37.7581 67.4779 38.0835 67.5071 38.4072C67.5363 38.7308 67.655 39.04 67.85 39.3L68.15 39.7C68.345 39.96 68.4637 40.2692 68.4929 40.5928C68.5221 40.9165 68.4606 41.2419 68.3152 41.5326C68.1699 41.8233 67.9465 42.0678 67.67 42.2386C67.3936 42.4095 67.075 42.5 66.75 42.5H66.5Z" stroke="white" stroke-width="2" stroke-linecap="round" stroke-linejoin="round"/>
<path d="M68 27.5C68.2761 27.5 68.5 27.2761 68.5 27C68.5 26.7239 68.2761 26.5 68 26.5C67.7239 26.5 67.5 26.7239 67.5 27C67.5 27.2761 67.7239 27.5 68 27.5Z" fill="black" stroke="white" stroke-width="2" stroke-linecap="round" stroke-linejoin="round"/>
<path d="M72 31.5C72.2761 31.5 72.5 31.2761 72.5 31C72.5 30.7239 72.2761 30.5 72 30.5C71.7239 30.5 71.5 30.7239 71.5 31C71.5 31.2761 71.7239 31.5 72 31.5Z" fill="black" stroke="white" stroke-width="2" stroke-linecap="round" stroke-linejoin="round"/>
<path d="M61 33.5C61.2761 33.5 61.5 33.2761 61.5 33C61.5 32.7239 61.2761 32.5 61 32.5C60.7239 32.5 60.5 32.7239 60.5 33C60.5 33.2761 60.7239 33.5 61 33.5Z" fill="black" stroke="white" stroke-width="2" stroke-linecap="round" stroke-linejoin="round"/>
<path d="M63 28.5C63.2761 28.5 63.5 28.2761 63.5 28C63.5 27.7239 63.2761 27.5 63 27.5C62.7239 27.5 62.5 27.7239 62.5 28C62.5 28.2761 62.7239 28.5 63 28.5Z" fill="black" stroke="white" stroke-width="2" stroke-linecap="round" stroke-linejoin="round"/>
<path d="M26.4 72.5C28.3086 73.4791 30.5041 73.7442 32.5909 73.2478C34.6777 72.7513 36.5186 71.5258 37.7818 69.7922C39.045 68.0585 39.6474 65.9307 39.4806 63.7922C39.3137 61.6536 38.3886 59.645 36.8718 58.1282C35.355 56.6114 33.3464 55.6863 31.2078 55.5194C29.0693 55.3526 26.9415 55.955 25.2078 57.2182C23.4742 58.4814 22.2487 60.3223 21.7522 62.4091C21.2558 64.4959 21.5209 66.6914 22.5 68.6L20.5 74.5L26.4 72.5Z" stroke="white" stroke-width="2" stroke-linecap="round" stroke-linejoin="round"/>
<path d="M74.75 62.25H64.071L74.1875 59.5791C74.2833 59.5538 74.3731 59.5099 74.4518 59.4498C74.5305 59.3896 74.5965 59.3145 74.646 59.2288C74.6955 59.143 74.7275 59.0483 74.7402 58.9501C74.7529 58.8519 74.7461 58.7521 74.72 58.6566L73.955 55.8441C73.8497 55.4657 73.5996 55.144 73.2589 54.9487C72.9181 54.7534 72.5141 54.7002 72.1344 54.8006L57.8572 58.5694C57.6671 58.6187 57.4888 58.7055 57.3326 58.8246C57.1765 58.9437 57.0457 59.0928 56.9478 59.2631C56.8494 59.4313 56.7858 59.6176 56.7609 59.8109C56.7359 60.0041 56.7501 60.2004 56.8025 60.3881L57.5 62.9587V71.25C57.5 71.6478 57.6581 72.0294 57.9394 72.3107C58.2207 72.592 58.6022 72.75 59 72.75H74C74.3979 72.75 74.7794 72.592 75.0607 72.3107C75.342 72.0294 75.5 71.6478 75.5 71.25V63C75.5 62.8011 75.421 62.6103 75.2804 62.4697C75.1397 62.329 74.9489 62.25 74.75 62.25ZM72.515 56.25L73.0775 58.3191L70.9569 58.8816L68.3207 57.3591L72.515 56.25ZM66.2628 57.9L68.8991 59.4225L65.436 60.3366L62.7997 58.8159L66.2628 57.9ZM58.8191 62.0831L58.2566 60.0131L60.741 59.3569L63.3772 60.8812L58.8191 62.0831ZM74 71.25H59V63.75H74V71.25Z" fill="white"/>
</g>
<defs>
<linearGradient id="paint0_linear_45_127" x1="97.6439" y1="-0.643916" x2="-0.643916" y2="97.6439" gradientUnits="userSpaceOnUse">
<stop/>
<stop offset="1" stop-color="#818181"/>
</linearGradient>
<clipPath id="clip0_45_127">
<rect width="100" height="100" fill="white"/>
</clipPath>
</defs>
</svg>
